<svg width="550" height="550" xmlns="http://www.w3.org/2000/svg" xmlns:svg="http://www.w3.org/2000/svg">
 <metadata id="metadata4775">image/svg+xml</metadata>
 <g>
  <title>Layer 1</title>
  <g id="layer1" stroke="null">
   <g id="g5318" stroke="null">
    <ellipse fill="#4b9bd1" ry="273" rx="272.99994" cx="274.99992" cy="275.00006" id="circle4657" stroke="null"/>
    <path fill="#46e268" d="m547.99986,275.00007c0,-54.77382 -16.12833,-105.7779 -43.89861,-148.52373c0,0 -15.57379,22.75071 -12.64758,37.37433c2.92409,14.62577 20.10708,15.74229 18.34218,26.47034c-1.7649,10.72805 -14.44019,-3.07019 -30.04279,25.20238c-15.60151,28.2747 -7.79756,67.28597 14.6247,70.20579c22.42331,2.91768 53.62209,-10.72912 53.62209,-10.72912l0.00001,0.00001z" id="path4659" stroke="null"/>
    <path fill="#46e268" d="m346.6944,11.51241c31.77569,8.62509 61.24797,22.84668 87.2928,41.53758c0,0 -31.6552,-5.22113 -43.64693,5.50052c-11.99067,10.72485 -29.47866,36.07866 -43.64693,0c-14.16613,-36.07652 0.00107,-47.03811 0.00107,-47.03811l-0.00001,0.00001z" id="path4661" stroke="null"/>
    <path fill="#46e268" d="m69.73703,95.01095c50.03364,-57.01541 123.44289,-93.01088 205.26289,-93.01088c0,0 -18.52134,11.21433 16.57835,30.22622c35.10075,19.01402 19.01188,27.78735 11.69954,33.63765c-7.31128,5.8503 -19.99405,-11.69955 -28.27789,-23.39802c-8.28491,-11.70168 -43.86341,-29.73673 -71.16554,-19.98445c-27.30106,9.75228 -50.69587,16.95586 -46.79922,26.02885c3.89558,9.07085 50.69587,-8.4726 68.24572,-7.50217c17.54984,0.97256 11.69954,11.69528 -4.87242,24.37165c-16.57408,12.67637 -18.52773,28.2747 -0.97683,38.02378c17.54878,9.75335 38.99421,10.72912 43.87514,4.87988c4.87775,-5.8503 -8.77545,-43.87515 24.37591,-27.30213c33.15136,16.57302 60.45243,26.33063 33.15136,50.70228c-27.30212,24.36952 -58.49983,51.67912 -59.47665,67.27317c-0.97683,15.5962 9.75335,28.2811 3.90305,29.25152c-5.85031,0.97043 -11.21967,-6.33552 -15.11738,-11.70168c-3.89558,-5.36295 -21.93704,-7.31022 -30.71143,-3.90092c-8.77545,3.4093 -25.35273,16.57302 -16.0878,29.24939c9.266,12.6785 21.93065,6.82073 34.60915,12.6721c12.67636,5.8503 24.49747,28.1158 22.07034,33.14817c-2.42714,5.03024 -13.23303,-1.3394 -22.07034,-18.52241c-8.83945,-17.18514 -25.4178,-5.8503 -37.08214,-8.77546c-11.66542,-2.92408 -20.44088,-4.87348 -32.14148,-25.34954c-11.70061,-20.47394 -35.92402,-26.20374 -45.8224,-38.02378c-28.35468,-33.8584 -26.32637,-59.47455 -32.17561,-71.17409c-5.8503,-11.70275 -20.99433,-30.81914 -20.99433,-30.81914l0.00001,0.00001z" id="path4663" stroke="null"/>
    <path fill="#46e268" d="m301.32415,278.90099c0,0 29.25044,2.91981 43.87514,15.59832c14.62469,12.67636 16.57835,17.55411 39.00166,22.42758c22.42331,4.87135 32.17561,17.54345 17.54985,41.9215c-14.6247,24.37485 -40.95426,63.37652 -53.62636,75.07713c-12.67103,11.70168 -28.27256,21.45077 -34.12286,40.95c-5.84923,19.4971 -7.8029,31.19025 4.87348,38.99635c0,0 -6.82073,16.57728 -22.42225,-4.87348c-15.60258,-21.4529 -2.92621,-46.79924 0,-61.425c2.92409,-14.62363 10.72272,-58.49452 5.84817,-69.2247c-4.87135,-10.72698 -27.30106,-17.55411 -33.15136,-39.9753c-5.8503,-22.42225 4.38826,-66.05747 32.17454,-59.47241l-0.00001,0.00001z" id="path4665" stroke="null"/>
   </g>
  </g>
 </g>
</svg>
