<svg width="500.00001" height="500.00001" xmlns="http://www.w3.org/2000/svg" xmlns:svg="http://www.w3.org/2000/svg">

 <metadata id="metadata4775">image/svg+xml</metadata>
 <g>
  <title>Layer 1</title>
  <g id="layer1">
   <g id="g5318">
    <ellipse fill="#178181" ry="250" rx="249.99994" cx="250.999922" cy="250.000062" id="circle4657"/>
    <path fill="#2aa846" d="m500.999862,250.000072c0,-50.15918 -14.76953,-96.86621 -40.20019,-136.01074c0,0 -14.26171,20.83398 -11.58203,34.22558c2.67774,13.39356 18.41308,14.41602 16.79687,24.24024c-1.61621,9.82422 -13.22362,-2.81153 -27.51171,23.0791c-14.2871,25.89258 -7.14062,61.61719 13.39258,64.29102c20.53417,2.67187 49.10448,-9.8252 49.10448,-9.8252z" id="path4659"/>
    <path fill="#2aa846" d="m316.654202,8.711012c29.09862,7.89843 56.08788,20.92187 79.93846,38.03808c0,0 -28.98828,-4.78125 -39.96972,5.03711c-10.98047,9.82129 -26.99511,33.03907 -39.96972,0c-12.97265,-33.03711 0.00098,-43.07519 0.00098,-43.07519z" id="path4661"/>
    <path fill="#2aa846" d="m63.030242,85.174872c45.81835,-52.21191 113.04294,-85.1748 187.96968,-85.1748c0,0 -16.96093,10.26953 15.18164,27.67969c32.14354,17.41211 17.41015,25.44629 10.71386,30.80371c-6.69531,5.35742 -18.30957,-10.71387 -25.8955,-21.42676c-7.58691,-10.71582 -40.16796,-27.23144 -65.16991,-18.30078c-25.00097,8.93066 -46.42479,15.52734 -42.85643,23.83594c3.56738,8.30664 46.42479,-7.75879 62.49608,-6.87012c16.07128,0.89062 10.71386,10.70996 -4.46192,22.31836c-15.17773,11.6084 -16.96679,25.89258 -0.89453,34.82031c16.07031,8.93164 35.70898,9.8252 40.1787,4.46875c4.4668,-5.35742 -8.03613,-40.17871 22.32226,-25.00195c30.35839,15.17676 55.35937,24.1123 30.35839,46.43066c-25.00194,22.31641 -53.57127,47.3252 -54.4658,61.60547c-0.89453,14.28223 8.93164,25.89844 3.57422,26.78711c-5.35743,0.88867 -10.27442,-5.80176 -13.84375,-10.71582c-3.56738,-4.91113 -20.08886,-6.69434 -28.12402,-3.57227c-8.03613,3.12207 -23.21679,15.17676 -14.73242,26.78516c8.48535,11.61035 20.08301,6.24609 31.69336,11.60449c11.60839,5.35742 22.43358,25.74707 20.21093,30.35547c-2.22266,4.60645 -12.11816,-1.22656 -20.21093,-16.96191c-8.09473,-15.73731 -23.27637,-5.35742 -33.958,-8.03614c-10.68262,-2.67773 -18.71875,-4.46289 -29.43359,-23.21386c-10.71484,-18.74903 -32.89745,-23.9961 -41.9619,-34.82031c-25.96582,-31.00586 -24.1084,-54.46387 -29.46484,-65.17774c-5.35742,-10.7168 -19.22558,-28.22266 -19.22558,-28.22266z" id="path4663"/>
    <path fill="#2aa846" d="m275.106362,253.572342c0,0 26.78612,2.67382 40.1787,14.28418c13.39257,11.60839 15.18164,16.07519 35.71581,20.53808c20.53417,4.46094 29.46484,16.06543 16.07129,38.38965c-13.39258,22.32129 -37.5039,58.03711 -49.10839,68.75195c-11.60351,10.71582 -25.89062,19.64356 -31.24804,37.5c-5.35644,17.85449 -7.14551,28.5625 4.46289,35.71094c0,0 -6.24609,15.18066 -20.5332,-4.46289c-14.28808,-19.64551 -2.67968,-42.85645 0,-56.25c2.67774,-13.3916 9.81934,-53.56641 5.35547,-63.39258c-4.46094,-9.82324 -25.00097,-16.07519 -30.35839,-36.60742c-5.35742,-20.5332 4.01855,-60.49219 29.46386,-54.46191z" id="path4665"/>
   </g>
  </g>
 </g>
</svg>
